<mxfile host="app.diagrams.net" agent="Mozilla/5.0 (Macintosh; Intel Mac OS X 10.15; rv:131.0) Gecko/20100101 Firefox/131.0" version="24.7.17">
  <diagram id="m4K4Au3kn2x9rjed8e1C" name="Page-1">
    <mxGraphModel dx="1424" dy="911" grid="1" gridSize="8" guides="1" tooltips="1" connect="1" arrows="1" fold="1" page="1" pageScale="1" pageWidth="1169" pageHeight="827" background="#ffffff" math="0" shadow="0">
      <root>
        <MiscDiagram modelType="MiscDiagram" lastModifiedUserId="dbush@ibm.com" description="" lastModified="2022-01-26T00:24:18Z" _id="miscdiagram_BJ4jbCYNF" label="Foundational Services on OCP" id="0">
          <mxCell />
        </MiscDiagram>
        <mxCell id="1" parent="0" />
        <mxCell id="miscdiagram_BJ4jbCYNF_23dyStULVF03" value="" style="rounded=0;whiteSpace=wrap;html=1;" parent="1" vertex="1">
          <mxGeometry x="48" y="424" width="864" height="160" as="geometry" />
        </mxCell>
        <mxCell id="miscdiagram_BJ4jbCYNF_33dyStULkgTY" value="" style="rounded=0;whiteSpace=wrap;html=1;" parent="1" vertex="1">
          <mxGeometry x="48" y="64" width="864" height="344" as="geometry" />
        </mxCell>
        <mxCell id="miscdiagram_BJ4jbCYNF_43dyStULJAIe" value="Foundational Services" style="text;html=1;strokeColor=none;fillColor=none;align=center;verticalAlign=middle;whiteSpace=wrap;rounded=0;" parent="1" vertex="1">
          <mxGeometry x="16" y="16" width="192" height="20" as="geometry" />
        </mxCell>
        <mxCell id="miscdiagram_BJ4jbCYNF_53dyStULfDh5" value="Always Installed" style="text;html=1;strokeColor=none;fillColor=none;align=center;verticalAlign=middle;whiteSpace=wrap;rounded=0;" parent="1" vertex="1">
          <mxGeometry x="56" y="72" width="136" height="20" as="geometry" />
        </mxCell>
        <UserObject placeholders="1" label="Zen UI" Icon-Name="cube" id="miscdiagram_BJ4jbCYNF_63dyStULaieI">
          <mxCell style="shape=mxgraph.ibm2mondrian.base;shapeType=lg;shapeLayout=expanded;colorFamily=green;colorBackground=noColor:noColor;strokeWidth=1;html=1;whiteSpace=wrap;metaEdit=1;collapsible=0;recursiveResize=0;expand=0;fontFamily=IBM Plex Sans SmBld;fontColor=#000000;fontSize=14;image=;verticalAlign=middle;align=left;spacing=0;spacingLeft=16;spacingRight=16;spacingTop=0;spacingBottom=0;container=1" parent="1" vertex="1">
            <mxGeometry x="64" y="208" width="168" height="84" as="geometry" />
          </mxCell>
        </UserObject>
        <UserObject placeholders="1" label="IAM" Icon-Name="cube" _id="userobject_3aq7w0F3ofB" id="miscdiagram_BJ4jbCYNF_73dyStULpHXH">
          <mxCell style="shape=mxgraph.ibm2mondrian.base;shapeType=lg;shapeLayout=expanded;colorFamily=green;colorBackground=noColor:noColor;strokeWidth=1;html=1;whiteSpace=wrap;metaEdit=1;collapsible=0;recursiveResize=0;expand=0;fontFamily=IBM Plex Sans SmBld;fontColor=#000000;fontSize=14;image=;verticalAlign=middle;align=left;spacing=0;spacingLeft=16;spacingRight=16;spacingTop=0;spacingBottom=0;container=1" parent="1" vertex="1">
            <mxGeometry x="240" y="208" width="168" height="84" as="geometry" />
          </mxCell>
        </UserObject>
        <UserObject placeholders="1" label="License Service" Icon-Name="cube" _id="userobject_3aq7ASUt4Iy" id="miscdiagram_BJ4jbCYNF_83dyStULGVaT">
          <mxCell style="shape=mxgraph.ibm2mondrian.base;shapeType=lg;shapeLayout=expanded;colorFamily=green;colorBackground=noColor:noColor;strokeWidth=1;html=1;whiteSpace=wrap;metaEdit=1;collapsible=0;recursiveResize=0;expand=0;fontFamily=IBM Plex Sans SmBld;fontColor=#000000;fontSize=14;image=;verticalAlign=middle;align=left;spacing=0;spacingLeft=16;spacingRight=16;spacingTop=0;spacingBottom=0;container=1" parent="1" vertex="1">
            <mxGeometry x="417" y="208" width="168" height="84" as="geometry" />
          </mxCell>
        </UserObject>
        <UserObject placeholders="1" label="Web UI" Icon-Name="cube" _id="userobject_3aq7IPtaiYj" id="miscdiagram_BJ4jbCYNF_93dyStULFkS9">
          <mxCell style="shape=mxgraph.ibm2mondrian.base;shapeType=lg;shapeLayout=expanded;colorFamily=green;colorBackground=noColor:noColor;strokeWidth=1;html=1;whiteSpace=wrap;metaEdit=1;collapsible=0;recursiveResize=0;expand=0;fontFamily=IBM Plex Sans SmBld;fontColor=#000000;fontSize=14;image=;verticalAlign=middle;align=left;spacing=0;spacingLeft=16;spacingRight=16;spacingTop=0;spacingBottom=0;container=1" parent="1" vertex="1">
            <mxGeometry x="417" y="112" width="168" height="84" as="geometry" />
          </mxCell>
        </UserObject>
        <UserObject placeholders="1" label="Certificate Service" Icon-Name="cube" _id="userobject_3aq7Q0LObSC" id="miscdiagram_BJ4jbCYNF_103dyStULZ4qt">
          <mxCell style="shape=mxgraph.ibm2mondrian.base;shapeType=lg;shapeLayout=expanded;colorFamily=green;colorBackground=noColor:noColor;strokeWidth=1;html=1;whiteSpace=wrap;metaEdit=1;collapsible=0;recursiveResize=0;expand=0;fontFamily=IBM Plex Sans SmBld;fontColor=#000000;fontSize=14;image=;verticalAlign=middle;align=left;spacing=0;spacingLeft=16;spacingRight=16;spacingTop=0;spacingBottom=0;container=1" parent="1" vertex="1">
            <mxGeometry x="64" y="304" width="168" height="80" as="geometry" />
          </mxCell>
        </UserObject>
        <UserObject placeholders="1" label="Zen UI" Icon-Name="cube" _id="userobject_3aq7XjPFMDa" id="miscdiagram_BJ4jbCYNF_113dyStULCs08">
          <mxCell style="shape=mxgraph.ibm2mondrian.base;shapeType=lg;shapeLayout=expanded;colorFamily=green;colorBackground=noColor:noColor;strokeWidth=1;html=1;whiteSpace=wrap;metaEdit=1;collapsible=0;recursiveResize=0;expand=0;fontFamily=IBM Plex Sans SmBld;fontColor=#000000;fontSize=14;image=;verticalAlign=middle;align=left;spacing=0;spacingLeft=16;spacingRight=16;spacingTop=0;spacingBottom=0;container=1" parent="1" vertex="1">
            <mxGeometry x="240" y="302" width="168" height="84" as="geometry" />
          </mxCell>
        </UserObject>
        <UserObject placeholders="1" label="Mongo DB" Icon-Name="cube" _id="userobject_3aq85qCGPaZ" id="miscdiagram_BJ4jbCYNF_123dyStULZ94Y">
          <mxCell style="shape=mxgraph.ibm2mondrian.base;shapeType=lg;shapeLayout=expanded;colorFamily=green;colorBackground=noColor:noColor;strokeWidth=1;html=1;whiteSpace=wrap;metaEdit=1;collapsible=0;recursiveResize=0;expand=0;fontFamily=IBM Plex Sans SmBld;fontColor=#000000;fontSize=14;image=;verticalAlign=middle;align=left;spacing=0;spacingLeft=16;spacingRight=16;spacingTop=0;spacingBottom=0;container=1" parent="1" vertex="1">
            <mxGeometry x="417" y="304" width="168" height="84" as="geometry" />
          </mxCell>
        </UserObject>
        <UserObject placeholders="1" label="Business Automation Navigator" Icon-Name="cube" _id="userobject_3aq8cc3SFPz" id="miscdiagram_BJ4jbCYNF_133dyStUL1Lzb">
          <mxCell style="shape=mxgraph.ibm2mondrian.base;shapeType=lg;shapeLayout=expanded;colorFamily=green;colorBackground=noColor:noColor;strokeWidth=1;html=1;whiteSpace=wrap;metaEdit=1;collapsible=0;recursiveResize=0;expand=0;fontFamily=IBM Plex Sans SmBld;fontColor=#000000;fontSize=14;image=;verticalAlign=middle;align=left;spacing=0;spacingLeft=16;spacingRight=16;spacingTop=0;spacingBottom=0;container=1" parent="1" vertex="1">
            <mxGeometry x="64" y="112" width="168" height="84" as="geometry" />
          </mxCell>
        </UserObject>
        <UserObject placeholders="1" label="Resource Registry" Icon-Name="cube" _id="userobject_3aq8jm7KWZn" id="miscdiagram_BJ4jbCYNF_143dyStULYVpp">
          <mxCell style="shape=mxgraph.ibm2mondrian.base;shapeType=lg;shapeLayout=expanded;colorFamily=green;colorBackground=noColor:noColor;strokeWidth=1;html=1;whiteSpace=wrap;metaEdit=1;collapsible=0;recursiveResize=0;expand=0;fontFamily=IBM Plex Sans SmBld;fontColor=#000000;fontSize=14;image=;verticalAlign=middle;align=left;spacing=0;spacingLeft=16;spacingRight=16;spacingTop=0;spacingBottom=0;container=1" parent="1" vertex="1">
            <mxGeometry x="240" y="112" width="168" height="84" as="geometry" />
          </mxCell>
        </UserObject>
        <mxCell id="miscdiagram_BJ4jbCYNF_153dyStULh55y" value="Optional" style="text;html=1;strokeColor=none;fillColor=none;align=center;verticalAlign=middle;whiteSpace=wrap;rounded=0;" parent="1" vertex="1">
          <mxGeometry x="64" y="440" width="88" height="20" as="geometry" />
        </mxCell>
        <UserObject placeholders="1" label="Application Engine" Icon-Name="cube" _id="userobject_3aq8PzGTZKV" id="miscdiagram_BJ4jbCYNF_163dyStUL15lV">
          <mxCell style="shape=mxgraph.ibm2mondrian.base;shapeType=lg;shapeLayout=expanded;colorFamily=green;colorBackground=noColor:noColor;strokeWidth=1;html=1;whiteSpace=wrap;metaEdit=1;collapsible=0;recursiveResize=0;expand=0;fontFamily=IBM Plex Sans SmBld;fontColor=#000000;fontSize=14;image=;verticalAlign=middle;align=left;spacing=0;spacingLeft=16;spacingRight=16;spacingTop=0;spacingBottom=0;container=1" parent="1" vertex="1">
            <mxGeometry x="249" y="472" width="168" height="84" as="geometry" />
          </mxCell>
        </UserObject>
        <UserObject placeholders="1" label="Business Automation Studio" Icon-Name="cube" _id="userobject_3aq8UMF2Eda" id="miscdiagram_BJ4jbCYNF_173dyStULZNFx">
          <mxCell style="shape=mxgraph.ibm2mondrian.base;shapeType=lg;shapeLayout=expanded;colorFamily=green;colorBackground=noColor:noColor;strokeWidth=1;html=1;whiteSpace=wrap;metaEdit=1;collapsible=0;recursiveResize=0;expand=0;fontFamily=IBM Plex Sans SmBld;fontColor=#000000;fontSize=14;image=;verticalAlign=middle;align=left;spacing=0;spacingLeft=16;spacingRight=16;spacingTop=0;spacingBottom=0;container=1" parent="1" vertex="1">
            <mxGeometry x="64" y="472" width="168" height="84" as="geometry" />
          </mxCell>
        </UserObject>
        <UserObject placeholders="1" label="Business Team Service" Icon-Name="cube" _id="userobject_3aq963N4Qjj" id="miscdiagram_BJ4jbCYNF_183dyStULBrt1">
          <mxCell style="shape=mxgraph.ibm2mondrian.base;shapeType=lg;shapeLayout=expanded;colorFamily=green;colorBackground=noColor:noColor;strokeWidth=1;html=1;whiteSpace=wrap;metaEdit=1;collapsible=0;recursiveResize=0;expand=0;fontFamily=IBM Plex Sans SmBld;fontColor=#000000;fontSize=14;image=;verticalAlign=middle;align=left;spacing=0;spacingLeft=16;spacingRight=16;spacingTop=0;spacingBottom=0;container=1" parent="1" vertex="1">
            <mxGeometry x="432" y="472" width="168" height="84" as="geometry" />
          </mxCell>
        </UserObject>
        <mxCell id="miscdiagram_BJ4jbCYNF_193dyStUL3bD4" value="" style="rounded=0;whiteSpace=wrap;html=1;" parent="1" vertex="1">
          <mxGeometry x="48" y="600" width="864" height="160" as="geometry" />
        </mxCell>
        <mxCell id="miscdiagram_BJ4jbCYNF_203dyStULqJuR" value="Business Automation Insights" style="text;html=1;strokeColor=none;fillColor=none;align=center;verticalAlign=middle;whiteSpace=wrap;rounded=0;" parent="1" vertex="1">
          <mxGeometry x="64" y="616" width="168" height="20" as="geometry" />
        </mxCell>
        <UserObject placeholders="1" label="Flink" Icon-Name="cube" _id="userobject_3aq9rUtkCdg" id="miscdiagram_BJ4jbCYNF_213dyStULls1S">
          <mxCell style="shape=mxgraph.ibm2mondrian.base;shapeType=lg;shapeLayout=expanded;colorFamily=green;colorBackground=noColor:noColor;strokeWidth=1;html=1;whiteSpace=wrap;metaEdit=1;collapsible=0;recursiveResize=0;expand=0;fontFamily=IBM Plex Sans SmBld;fontColor=#000000;fontSize=14;image=;verticalAlign=middle;align=left;spacing=0;spacingLeft=16;spacingRight=16;spacingTop=0;spacingBottom=0;container=1" parent="1" vertex="1">
            <mxGeometry x="249" y="648" width="168" height="84" as="geometry" />
          </mxCell>
        </UserObject>
        <UserObject placeholders="1" label="Kafka" Icon-Name="cube" _id="userobject_3aq9zHCwQQw" id="miscdiagram_BJ4jbCYNF_233dyStULN98L">
          <mxCell style="shape=mxgraph.ibm2mondrian.base;shapeType=lg;shapeLayout=expanded;colorFamily=green;colorBackground=noColor:noColor;strokeWidth=1;html=1;whiteSpace=wrap;metaEdit=1;collapsible=0;recursiveResize=0;expand=0;fontFamily=IBM Plex Sans SmBld;fontColor=#000000;fontSize=14;image=;verticalAlign=middle;align=left;spacing=0;spacingLeft=16;spacingRight=16;spacingTop=0;spacingBottom=0;container=1" parent="1" vertex="1">
            <mxGeometry x="64" y="648" width="168" height="84" as="geometry" />
          </mxCell>
        </UserObject>
        <UserObject placeholders="1" label="OpenSearch" Icon-Name="cube" _id="userobject_3aq9DXImLie" id="miscdiagram_BJ4jbCYNF_243dyStULNhQR">
          <mxCell style="shape=mxgraph.ibm2mondrian.base;shapeType=lg;shapeLayout=expanded;colorFamily=green;colorBackground=noColor:noColor;strokeWidth=1;html=1;whiteSpace=wrap;metaEdit=1;collapsible=0;recursiveResize=0;expand=0;fontFamily=IBM Plex Sans SmBld;fontColor=#000000;fontSize=14;image=;verticalAlign=middle;align=left;spacing=0;spacingLeft=16;spacingRight=16;spacingTop=0;spacingBottom=0;container=1" parent="1" vertex="1">
            <mxGeometry x="432" y="648" width="168" height="84" as="geometry" />
          </mxCell>
        </UserObject>
      </root>
    </mxGraphModel>
  </diagram>
</mxfile>
